PathFileType	4	(X/Y/Z)	 1.9Hzhigh3min.trc
DataRate	CameraRate	NumFrames	NumMarkers	Units	OrigDataRate	OrigDataStartFrame	OrigNumFrames
200	200	8	35	m	200	126	1000
Frame#	Time	C7			LSH			RSH			MAN			RASI			LASI			HIPR			HIPL			RPSI			LPSI			COX			RTHI1			RTHI2			RTHI3			RTHI4			RSHA1			RSHA2			RSHA3			RSHA4			RHEEL			RMET5			RMET1			RTOE			LTHI1			LTHI2			LTHI3			LTHI4			LSHA1			LSHA2			LSHA3			LSHA4			LHEEL			LMET5			LMET1			LTOE			
		X1	Y1	Z1	X2	Y2	Z2	X3	Y3	Z3	X4	Y4	Z4	X5	Y5	Z5	X6	Y6	Z6	X7	Y7	Z7	X8	Y8	Z8	X9	Y9	Z9	X10	Y10	Z10	X11	Y11	Z11	X12	Y12	Z12	X13	Y13	Z13	X14	Y14	Z14	X15	Y15	Z15	X16	Y16	Z16	X17	Y17	Z17	X18	Y18	Z18	X19	Y19	Z19	X20	Y20	Z20	X21	Y21	Z21	X22	Y22	Z22	X23	Y23	Z23	X24	Y24	Z24	X25	Y25	Z25	X26	Y26	Z26	X27	Y27	Z27	X28	Y28	Z28	X29	Y29	Z29	X30	Y30	Z30	X31	Y31	Z31	X32	Y32	Z32	X33	Y33	Z33	X34	Y34	Z34	X35	Y35	Z35	
126	0.6300	-0.334160	1.297523	-0.514018	-0.268650	1.251987	-0.689158	-0.282894	1.265758	-0.341508	-0.219784	1.237373	-0.513093	-0.225559	0.865022	-0.428879	-0.214881	0.869342	-0.608607	-0.298617	0.907232	-0.379911	-0.268027	0.918907	-0.647096	-0.374220	0.894457	-0.454504	-0.363333	0.903535	-0.571960	-0.373067	0.907532	-0.513546	-0.285757	0.682382	-0.348969	-0.271357	0.622317	-0.349974	-0.203198	0.646346	-0.363611	-0.225292	0.702652	-0.361606	-0.294297	0.282152	-0.343008	-0.320943	0.248432	-0.347560	-0.269470	0.218473	-0.363028	-0.248591	0.252721	-0.361344	-0.461966	0.075176	-0.405607	-0.314693	0.030806	-0.330579	-0.278206	0.032122	-0.408809	-0.253344	0.026136	-0.396254	-0.293876	0.639545	-0.675865	-0.279585	0.582558	-0.668985	-0.209566	0.600390	-0.673991	-0.231543	0.656881	-0.682282	-0.337360	0.261538	-0.660125	-0.362014	0.229818	-0.656067	-0.308164	0.197939	-0.648885	-0.289584	0.237602	-0.655210	-0.477126	0.080023	-0.602646	-0.332069	0.028196	-0.675030	-0.293149	0.034657	-0.603214	-0.270473	0.026627	-0.616555	
127	0.6350	-0.334244	1.297830	-0.514223	-0.268260	1.252104	-0.689270	-0.283106	1.265915	-0.341454	-0.219766	1.237599	-0.513089	-0.225398	0.865644	-0.429026	-0.214687	0.870256	-0.608697	-0.298095	0.908103	-0.380271	-0.267734	0.920135	-0.646776	-0.374088	0.894504	-0.454438	-0.363228	0.903845	-0.571907	-0.372970	0.907754	-0.513481	-0.285788	0.682437	-0.349260	-0.271358	0.622370	-0.350394	-0.203168	0.646484	-0.363629	-0.225284	0.702752	-0.361625	-0.294391	0.282405	-0.343311	-0.321023	0.248646	-0.347918	-0.269513	0.218682	-0.363206	-0.248630	0.252946	-0.361524	-0.461830	0.075308	-0.405963	-0.314705	0.030851	-0.330761	-0.278107	0.032071	-0.408913	-0.253278	0.026118	-0.396292	-0.294061	0.640119	-0.676026	-0.279881	0.583134	-0.669045	-0.209820	0.600836	-0.673957	-0.231695	0.657351	-0.682368	-0.338433	0.261398	-0.659470	-0.362966	0.229615	-0.655329	-0.308979	0.197881	-0.648365	-0.290557	0.237604	-0.654765	-0.477275	0.079285	-0.601671	-0.332240	0.028203	-0.674704	-0.293064	0.034623	-0.603022	-0.270414	0.026621	-0.616510	
128	0.6400	-0.334456	1.298916	-0.514435	-0.267939	1.253109	-0.689386	-0.283337	1.266976	-0.341412	-0.219877	1.238735	-0.513086	-0.225077	0.866902	-0.429137	-0.214362	0.871859	-0.608774	-0.297450	0.909439	-0.380659	-0.267418	0.921992	-0.646463	-0.373797	0.895293	-0.454368	-0.362986	0.904884	-0.571813	-0.372721	0.908699	-0.513411	-0.285823	0.683279	-0.349457	-0.271440	0.623200	-0.350724	-0.203202	0.647300	-0.363616	-0.225266	0.703557	-0.361581	-0.294671	0.283085	-0.343413	-0.321245	0.249245	-0.348081	-0.269657	0.219376	-0.363251	-0.248825	0.253686	-0.361585	-0.461595	0.075807	-0.406108	-0.314655	0.030899	-0.330892	-0.278011	0.032027	-0.408967	-0.253224	0.026103	-0.396328	-0.294272	0.641482	-0.676314	-0.280310	0.584460	-0.669238	-0.210173	0.601917	-0.674021	-0.231843	0.658504	-0.682538	-0.339778	0.261724	-0.659037	-0.364133	0.229835	-0.654809	-0.309951	0.198324	-0.648113	-0.291759	0.238145	-0.654593	-0.477325	0.078922	-0.600909	-0.332369	0.028214	-0.674431	-0.292973	0.034592	-0.602887	-0.270367	0.026617	-0.616476	
129	0.6450	-0.334766	1.300753	-0.514651	-0.267709	1.254997	-0.689501	-0.283585	1.268912	-0.341388	-0.220133	1.240749	-0.513082	-0.224584	0.868790	-0.429223	-0.213893	0.874110	-0.608833	-0.296753	0.911207	-0.381000	-0.267110	0.924370	-0.646245	-0.373347	0.896860	-0.454336	-0.362590	0.906655	-0.571736	-0.372312	0.910384	-0.513375	-0.285838	0.684940	-0.349578	-0.271583	0.624828	-0.350948	-0.203270	0.648802	-0.363576	-0.225198	0.705086	-0.361522	-0.295149	0.284202	-0.343324	-0.321617	0.250254	-0.348048	-0.269915	0.220573	-0.363166	-0.249189	0.254963	-0.361523	-0.461261	0.076670	-0.406048	-0.314549	0.030954	-0.330969	-0.277925	0.031991	-0.408970	-0.253185	0.026091	-0.396357	-0.294503	0.643618	-0.676707	-0.280859	0.586530	-0.669553	-0.210619	0.603626	-0.674177	-0.231976	0.660326	-0.682777	-0.341346	0.262522	-0.658881	-0.365472	0.230490	-0.654560	-0.311057	0.199290	-0.648154	-0.293153	0.239234	-0.654705	-0.477270	0.078961	-0.600441	-0.332443	0.028231	-0.674234	-0.292883	0.034566	-0.602819	-0.270332	0.026613	-0.616456	
130	0.6500	-0.335164	1.303356	-0.514855	-0.267599	1.257735	-0.689608	-0.283848	1.271678	-0.341397	-0.220438	1.243613	-0.513101	-0.223911	0.871337	-0.429300	-0.213276	0.876979	-0.608869	-0.296046	0.913480	-0.381210	-0.266784	0.927231	-0.646174	-0.372744	0.899217	-0.454371	-0.362036	0.909143	-0.571716	-0.371754	0.912797	-0.513395	-0.285813	0.687435	-0.349622	-0.271770	0.627265	-0.351061	-0.203357	0.650990	-0.363502	-0.225067	0.707339	-0.361441	-0.295832	0.285786	-0.343057	-0.322151	0.251704	-0.347828	-0.270305	0.222300	-0.362931	-0.249735	0.256775	-0.361304	-0.460829	0.077874	-0.405789	-0.314387	0.031025	-0.330993	-0.277853	0.031966	-0.408918	-0.253165	0.026083	-0.396378	-0.294757	0.646515	-0.677190	-0.281522	0.589335	-0.669983	-0.211154	0.605961	-0.674420	-0.232100	0.662809	-0.683074	-0.343086	0.263794	-0.659028	-0.366945	0.231581	-0.654613	-0.312259	0.200775	-0.648491	-0.294693	0.240860	-0.655100	-0.477124	0.079398	-0.600297	-0.332451	0.028249	-0.674129	-0.292799	0.034543	-0.602825	-0.270313	0.026609	-0.616450	
131	0.6550	-0.335619	1.306702	-0.515023	-0.267626	1.261290	-0.689708	-0.284123	1.275235	-0.341440	-0.220682	1.247306	-0.513171	-0.223073	0.874582	-0.429376	-0.212518	0.880440	-0.608880	-0.295317	0.916352	-0.381262	-0.266376	0.930600	-0.646259	-0.372001	0.902350	-0.454480	-0.361322	0.912334	-0.571765	-0.371059	0.915910	-0.513490	-0.285738	0.690748	-0.349587	-0.271985	0.630486	-0.351092	-0.203449	0.653858	-0.363397	-0.224871	0.710313	-0.361328	-0.296743	0.287856	-0.342621	-0.322853	0.253612	-0.347442	-0.270842	0.224562	-0.362549	-0.250469	0.259140	-0.360930	-0.460294	0.079463	-0.405388	-0.314169	0.031124	-0.330968	-0.277797	0.031959	-0.408813	-0.253167	0.026080	-0.396386	-0.295040	0.650157	-0.677742	-0.282285	0.592866	-0.670531	-0.211776	0.608930	-0.674743	-0.232229	0.665958	-0.683424	-0.344942	0.265557	-0.659499	-0.368510	0.233118	-0.654988	-0.313534	0.202771	-0.649113	-0.296339	0.243018	-0.655773	-0.476874	0.080273	-0.600536	-0.332386	0.028276	-0.674124	-0.292725	0.034527	-0.602910	-0.270312	0.026606	-0.616459	
132	0.6600	-0.336100	1.310727	-0.515151	-0.267796	1.265624	-0.689797	-0.284412	1.279534	-0.341521	-0.220930	1.251727	-0.513279	-0.222110	0.878551	-0.429457	-0.211635	0.884491	-0.608877	-0.294541	0.919925	-0.381175	-0.265829	0.934506	-0.646461	-0.371131	0.906215	-0.454670	-0.360451	0.916185	-0.571902	-0.370241	0.919697	-0.513660	-0.285616	0.694844	-0.349482	-0.272222	0.634464	-0.351039	-0.203546	0.657390	-0.363262	-0.224608	0.713987	-0.361208	-0.297883	0.290414	-0.342064	-0.323735	0.255993	-0.346909	-0.271529	0.227361	-0.362018	-0.251394	0.262071	-0.360396	-0.459637	0.081393	-0.404830	-0.313893	0.031257	-0.330898	-0.277754	0.031974	-0.408652	-0.253186	0.026082	-0.396379	-0.295357	0.654509	-0.678354	-0.283142	0.597084	-0.671186	-0.212481	0.612518	-0.675145	-0.232380	0.669750	-0.683817	-0.346874	0.267801	-0.660279	-0.370124	0.235125	-0.655684	-0.314845	0.205291	-0.650005	-0.298051	0.245700	-0.656707	-0.476516	0.081580	-0.601139	-0.332249	0.028308	-0.674220	-0.292662	0.034524	-0.603078	-0.270328	0.026605	-0.616488	
133	0.6650	-0.336602	1.315388	-0.515230	-0.268113	1.270694	-0.689875	-0.284710	1.284525	-0.341627	-0.221227	1.256793	-0.513419	-0.221070	0.883237	-0.429543	-0.210652	0.889121	-0.608863	-0.293695	0.924261	-0.381033	-0.265080	0.938997	-0.646720	-0.370152	0.910755	-0.454935	-0.359455	0.920652	-0.572131	-0.369314	0.924115	-0.513916	-0.285452	0.699682	-0.349312	-0.272481	0.639160	-0.350901	-0.203650	0.661557	-0.363116	-0.224295	0.718329	-0.361085	-0.299254	0.293472	-0.341383	-0.324789	0.258835	-0.346259	-0.272361	0.230701	-0.361335	-0.252506	0.265561	-0.359715	-0.458841	0.083655	-0.404141	-0.313558	0.031431	-0.330795	-0.277720	0.032012	-0.408437	-0.253222	0.026091	-0.396357	-0.295713	0.659534	-0.679018	-0.284086	0.601966	-0.671949	-0.213266	0.616712	-0.675624	-0.232562	0.674160	-0.684247	-0.348853	0.270523	-0.661349	-0.371757	0.237608	-0.656672	-0.316169	0.208346	-0.651148	-0.299801	0.248913	-0.657877	-0.476032	0.083331	-0.602090	-0.332041	0.028353	-0.674404	-0.292609	0.034541	-0.603329	-0.270360	0.026607	-0.616540	
